<?xml version="1.0" encoding="utf-8"?>
<!-- Generator: Adobe Illustrator 18.0.0, SVG Export Plug-In . SVG Version: 6.00 Build 0)  -->
<!DOCTYPE svg PUBLIC "-//W3C//DTD SVG 1.1//EN" "http://www.w3.org/Graphics/SVG/1.1/DTD/svg11.dtd" [
	<!ENTITY ns_extend "http://ns.adobe.com/Extensibility/1.0/">
	<!ENTITY ns_ai "http://ns.adobe.com/AdobeIllustrator/10.0/">
	<!ENTITY ns_graphs "http://ns.adobe.com/Graphs/1.0/">
	<!ENTITY ns_vars "http://ns.adobe.com/Variables/1.0/">
	<!ENTITY ns_imrep "http://ns.adobe.com/ImageReplacement/1.0/">
	<!ENTITY ns_sfw "http://ns.adobe.com/SaveForWeb/1.0/">
	<!ENTITY ns_custom "http://ns.adobe.com/GenericCustomNamespace/1.0/">
	<!ENTITY ns_adobe_xpath "http://ns.adobe.com/XPath/1.0/">
]>
<svg version="1.1" id="Layer_1" xmlns:x="&ns_extend;" xmlns:i="&ns_ai;" xmlns:graph="&ns_graphs;"
	 xmlns="http://www.w3.org/2000/svg" xmlns:xlink="http://www.w3.org/1999/xlink" x="0px" y="0px" viewBox="0 0 2084 2084"
	 enable-background="new 0 0 2084 2084" xml:space="preserve">
<metadata>
	<sfw  xmlns="&ns_sfw;">
		<slices></slices>
		<sliceSourceBounds  width="1577.9" height="335.8" x="443.4" y="-1196.3" bottomLeftOrigin="true"></sliceSourceBounds>
	</sfw>
</metadata>
<g>
	<path fill="#FFFFFF" d="M571.6,963.7l-3.2,14.6c-8.9-11.8-23.7-18.6-43.8-18.6c-50.4,0-81.1,44.9-81.1,86.3
		c0,37.6,26.1,66.9,61.3,66.9c17.2,0,29.7-6.5,39.3-15.9l-2.5,12h38.1l23.7-111.4C575,994,571.6,963.7,571.6,963.7 M557.9,1036.7
		c-2.7,22.7-19.5,39.6-41.1,39.6c-19.2,0-32.9-13.5-32.9-34.3c0-25,17.9-45.8,41.6-45.8C546.3,996.2,560.8,1012.4,557.9,1036.7"/>
	<path fill="#FFFFFF" d="M694.8,959.7c-14.5,0-29.3,4.5-41.4,19.2l2.9-12.9c-1.8,5.8-9.6,20.9-42.5,22.2L588.2,1109h39.3l16.3-77.4
		c5.4-23.6,20.6-34.6,38.9-34.6c7.3,0,15.4,1.7,21.1,4.7l12.7-37.6C709.6,961.5,701.8,959.7,694.8,959.7"/>
	<path fill="#FFFFFF" d="M778.5,996.4c3.8,0,7.9,0.4,12.2,1.7c17.2,5.5,35.9,4.8,51.6-4.1h0.1C830.5,972,809.5,960,780.5,960
		c-48.9,0-83.2,38.1-83.2,83.6c0,39.5,28.4,68.8,70.9,68.8c23,0,43.8-9.4,58.6-26.4l-0.2-0.2c-12.6-11.8-30.3-15.1-47-11
		c-3.2,0.8-6.5,1.2-9.9,1.2c-18.3,0-32.2-14.4-32.2-35.1C737.5,1016.8,754.8,996.4,778.5,996.4"/>
	<path fill="#FFFFFF" d="M934.5,959.7c-14.1,0-28,4-39.7,16.2l16.2-76.8c0.6-3-3.2-4.8-5.1-2.4c-7.3,9.7-19,18.7-38.1,20.1
		L827.1,1109c11.5,0,22.2-4,30.6-10.9c8.4-6.8,14.5-16.4,17-27.6l8.3-39.5c5.4-25.4,20.8-34.5,37.3-34.5s22.6,9.2,22.6,21.3
		c0,3.1-0.3,6.3-1.1,9.6l-17.5,81.6c11.5,0,22.1-3.9,30.5-10.8c8.4-6.8,14.5-16.3,17-27.6l10-46.4c1.2-5.5,1.6-10.9,1.6-15.8
		C983.4,980,964.8,959.7,934.5,959.7"/>
	<path fill="#FFFFFF" d="M1010.3,974.6c-8.4,6.8-14.6,16.4-17,27.6L970.7,1109c11.5,0,22.2-4,30.6-10.9c8.4-6.8,14.5-16.4,17-27.6
		l22.7-106.8C1029.4,963.7,1018.8,967.7,1010.3,974.6"/>
	<path fill="#FFFFFF" d="M1159.5,1092.3c-9.9-12.6-26.2-18.4-41.7-14.5c-4.6,1.2-9.4,1.7-14.4,1.7c-15.4,0-26.3-6.3-30.9-17.9h-40.2
		c5.1,30.2,29.2,51.2,67.8,51.2C1125,1112.9,1143.7,1106.3,1159.5,1092.3 M1114.8,959.8c-59.4,0-83.6,52.7-83.6,89.4v0.2H1171
		c3.1-7.5,5.7-20.5,5.7-30.3C1176.8,982.8,1151.5,959.8,1114.8,959.8 M1139,1022.6h-64.4c5.6-15,17-29.1,38-29.1
		C1129.4,993.5,1140.1,1003.4,1139,1022.6C1139,1022.6,1139,1022.6,1139,1022.6"/>
	<path fill="#FFFFFF" d="M1046.6,896.5l-9.2-6.1c-39.1-24.7-74.4-28.9-117.7-29.8c-43.4-1-85.4,7.6-125,20.8
		c-39.8,12.9-77.4,30.9-113.6,51.1c-18.1,10.1-35.4,21.5-52.6,33c-8.7,5.3-18.2,10.1-28.3,11.3c-5,0.5-10.2,0.3-14.8-1.6
		c-4.5-1.8-11.7-8.4-13.8-12.3l-1.2,6.9c7.1,9.4,19.8,10,30,8.4c10.3-1.9,19.9-6.2,28.8-11.7c17.4-11.2,35.2-21.6,53.6-30.9
		c36.6-19,75.4-33.6,115-43.5c39.7-9.2,80.8-13.2,119.8-6.7c19.5,3,38.1,9.1,55.2,17.4c12,6,19.8,12.9,30.2,21.5
		c4.4,3.6,8.1,8.2,13,11.1c5.2,3.2,9.6,5.4,15.5,5.4c14.6,0,25.9-11.6,25-26.5C1055.8,906.9,1052.5,900.9,1046.6,896.5"/>
</g>
<g>
	<path fill="#FFFFFF" d="M1972.6,917.6h-8.7v-5.1h23.6v5.1h-8.7v22h-6.3V917.6z"/>
	<path fill="#FFFFFF" d="M2015.5,939.5l0-16.2l-8,13.4h-2.8l-7.9-13v15.9h-5.9v-27.1h5.2l10.1,16.8l10-16.8h5.1l0.1,27.1H2015.5z"/>
</g>
<g>
	<path fill="#FFFFFF" d="M1301.5,1036.6c0-45.6,35.2-78,83.3-78c48.1,0,83,32.4,83,78c0,45.6-34.9,78-83,78
		C1336.7,1114.5,1301.5,1082.2,1301.5,1036.6z M1423.4,1036.6c0-26.2-16.6-41.9-38.6-41.9c-22,0-38.8,15.8-38.8,41.9
		c0,26.2,16.9,41.9,38.8,41.9C1406.8,1078.5,1423.4,1062.7,1423.4,1036.6z"/>
	<path fill="#FFFFFF" d="M1545.2,1052.9l-21.1,20.8v38.6h0c-24.2,0-43.9-19.7-43.9-43.9v-121c0-24.2,19.7-43.9,43.9-43.9h0v118.2
		l26.2-24.8c24.4-23.1,56.7-36,90.4-36l0,0l-63,64.2l68.7,87.3h0c-33.6,0-65.5-15.2-86.6-41.4L1545.2,1052.9z"/>
	<path fill="#FFFFFF" d="M1779.1,1048.9h-103.5c4.2,18.9,20.3,30.4,43.3,30.4c6,0,11.4-0.7,16.3-2c16.1-4.4,33.4,0.1,44.7,12.4
		l0.3,0.4c-14.1,16-35.2,24.5-62.5,24.5c-52.4,0-86.4-32.9-86.4-78c0-45.3,34.6-78,80.8-78c44.5,0,78.8,29.8,78.8,78.5
		c0,0,0,0.1,0,0.1C1790.9,1043.7,1785.6,1048.9,1779.1,1048.9z M1675,1023.3h74.6c-3.1-19.1-17.5-31.5-37.2-31.5
		C1692.4,991.8,1678.1,1003.9,1675,1023.3z"/>
	<path fill="#FFFFFF" d="M1958.1,1025.6v42.8c0,24.2-19.7,43.9-43.9,43.9h0v-79.9c0-24.5-11.3-35.7-30.7-35.7
		c-21.1,0-36.3,12.9-36.3,40.8v74.9l0,0c-24.2,0-43.9-19.7-43.9-43.9v-65.6c0-23.2,18.8-41.9,41.9-41.9h0v17.7
		c11.8-12.9,29.6-20,50.1-20C1931.1,958.6,1958.1,979.4,1958.1,1025.6z"/>
</g>
<g>
	<path fill="#FFFFFF" d="M1227.1,1114.5c0,0,0-84,0-124c0-54.3,49.6-79.1,94.2-79.1l42.8,0c0,22-16.1,49.3-44.6,49.3
		c-1.1,0-7.9,0-9,0c-22.4,0-40.6,15.5-40.6,47.6c0,10.3,0,40.6,0,58.5C1269.9,1100.8,1251.5,1115.1,1227.1,1114.5z"/>
	<path fill="#FFFFFF" d="M1251.3,935.5c-14.6,12.9-24.2,31-24.2,55c0,40.1,0,124,0,124c17.3,0,21.7-12.5,21.7-23.8s0-45.2,0-82.3
		c0-37.1,18.1-47.6,61.8-47.6l-6.5-27.1L1251.3,935.5z"/>
	<path fill="#FFFFFF" d="M1209.5,960.7c0-27.4,20.9-49.3,41.7-49.3H1144c0,22.2,16.8,49.3,47.4,49.3H1209.5z"/>
	<path fill="#FFFFFF" d="M1209.5,960.7c0-27.4,20.9-49.3,41.7-49.3H1144c0,22.2,16.8,49.3,47.4,49.3H1209.5z"/>
	<path fill="#FFFFFF" d="M1364.2,911.4l-42.8,0c-44.6,0-94.2,24.8-94.2,79.1c0,6.4,0,13.8,0,21.9c0-47.9,52.1-51.6,83.4-51.6
		c1.1,0,7.9,0,9,0C1354,958.2,1364.2,933.4,1364.2,911.4z"/>
	<path fill="#FFFFFF" d="M1227.1,990.5c0,6.4,0,13.8,0,21.9c0-118.6,137-40.6,137-100.9l-42.8,0
		C1276.7,911.4,1227.1,936.2,1227.1,990.5z"/>
	<path fill="#FFFFFF" d="M1212,911.4h-68c0,13.5,6.3,28.9,18.1,38.8C1140.7,923.8,1189.8,911.4,1212,911.4z"/>
	<path fill="#FFFFFF" d="M1173.2,911.4H1144c0,6.7,1.5,13.8,4.5,20.5C1149.1,922.4,1160.3,915.6,1173.2,911.4z"/>
</g>
<path fill="#FFFFFF" d="M1119.3,1182.6H446.4c-1.7,0-3-1.3-3-3l0,0c0-1.7,1.3-3,3-3h672.9c1.7,0,3,1.3,3,3l0,0
	C1122.3,1181.3,1121,1182.6,1119.3,1182.6z"/>
<g>
	<path fill="#FFFFFF" d="M1142.3,1176.4c0-11.4,8.9-19.9,21.1-19.9c12.1,0,21.1,8.4,21.1,19.9s-9,19.9-21.1,19.9
		C1151.2,1196.3,1142.3,1187.9,1142.3,1176.4z M1175.4,1176.4c0-7.3-5.2-12.3-12-12.3s-12,5-12,12.3c0,7.3,5.2,12.3,12,12.3
		S1175.4,1183.7,1175.4,1176.4z"/>
	<path fill="#FFFFFF" d="M1226.5,1157.2v38.5h-7.3l-19.2-23.4v23.4h-8.8v-38.5h7.4l19.1,23.4v-23.4H1226.5z"/>
	<path fill="#FFFFFF" d="M1276.5,1187.4h-17.9l-3.4,8.3h-9.1l17.2-38.5h8.8l17.2,38.5h-9.4L1276.5,1187.4z M1273.7,1180.7l-6.1-14.7
		l-6.1,14.7H1273.7z"/>
	<path fill="#FFFFFF" d="M1293.3,1157.2h8.9v31.2h19.3v7.3h-28.2V1157.2z"/>
	<path fill="#FFFFFF" d="M1326.5,1157.2h8.9v31.2h19.3v7.3h-28.2V1157.2z"/>
	<path fill="#FFFFFF" d="M1410.6,1157.2v38.5h-7.3l-19.2-23.4v23.4h-8.8v-38.5h7.4l19.1,23.4v-23.4H1410.6z"/>
	<path fill="#FFFFFF" d="M1449.6,1188.5v7.2h-29.8v-38.5h29.1v7.2h-20.2v8.4h17.9v6.9h-17.9v8.9H1449.6z"/>
	<path fill="#FFFFFF" d="M1514.3,1157.2l-12.6,38.5h-9.6l-8.5-26.1l-8.7,26.1h-9.5l-12.7-38.5h9.2l8.7,27.1l9.1-27.1h8.3l8.8,27.3
		l9-27.3H1514.3z"/>
	<path fill="#FFFFFF" d="M1561,1187.4h-17.9l-3.4,8.3h-9.1l17.2-38.5h8.8l17.2,38.5h-9.4L1561,1187.4z M1558.2,1180.7l-6.1-14.7
		l-6.1,14.7H1558.2z"/>
	<path fill="#FFFFFF" d="M1602.3,1195.7l-7.4-10.7h-0.4h-7.8v10.7h-8.9v-38.5h16.7c10.3,0,16.7,5.3,16.7,14c0,5.8-2.9,10-7.9,12.2
		l8.6,12.4H1602.3z M1593.9,1164.4h-7.3v13.4h7.3c5.4,0,8.2-2.5,8.2-6.7C1602.1,1166.9,1599.4,1164.4,1593.9,1164.4z"/>
	<path fill="#FFFFFF" d="M1615.8,1176.4c0-11.6,8.9-19.9,20.9-19.9c6.7,0,12.2,2.4,15.8,6.8l-5.7,5.3c-2.6-3-5.8-4.5-9.7-4.5
		c-7.2,0-12.3,5.1-12.3,12.3c0,7.3,5.1,12.3,12.3,12.3c3.9,0,7.1-1.5,9.7-4.6l5.7,5.3c-3.6,4.5-9.2,6.9-15.9,6.9
		C1624.7,1196.3,1615.8,1188,1615.8,1176.4z"/>
	<path fill="#FFFFFF" d="M1693.8,1157.2v38.5h-8.9v-15.8h-17.5v15.8h-8.9v-38.5h8.9v15.2h17.5v-15.2H1693.8z"/>
	<path fill="#FFFFFF" d="M1703,1157.2h8.9v38.5h-8.9V1157.2z"/>
	<path fill="#FFFFFF" d="M1750.8,1188.5v7.2H1721v-38.5h29.1v7.2h-20.2v8.4h17.9v6.9h-17.9v8.9H1750.8z"/>
	<path fill="#FFFFFF" d="M1771.1,1176.4c0-11.6,8.9-19.9,20.9-19.9c6.7,0,12.2,2.4,15.8,6.8l-5.7,5.3c-2.6-3-5.8-4.5-9.7-4.5
		c-7.2,0-12.3,5.1-12.3,12.3c0,7.3,5.1,12.3,12.3,12.3c3.9,0,7.1-1.5,9.7-4.6l5.7,5.3c-3.6,4.5-9.2,6.9-15.9,6.9
		C1780,1196.3,1771.1,1188,1771.1,1176.4z"/>
	<path fill="#FFFFFF" d="M1849.1,1157.2v38.5h-8.9v-15.8h-17.5v15.8h-8.9v-38.5h8.9v15.2h17.5v-15.2H1849.1z"/>
	<path fill="#FFFFFF" d="M1883.6,1187.4h-17.9l-3.4,8.3h-9.1l17.2-38.5h8.8l17.2,38.5h-9.4L1883.6,1187.4z M1880.8,1180.7l-6.1-14.7
		l-6.1,14.7H1880.8z"/>
	<path fill="#FFFFFF" d="M1900.4,1157.2h8.9v38.5h-8.9V1157.2z"/>
	<path fill="#FFFFFF" d="M1953.7,1157.2v38.5h-7.3l-19.2-23.4v23.4h-8.8v-38.5h7.4l19.1,23.4v-23.4H1953.7z"/>
</g>
</svg>
